<svg xmlns="http://www.w3.org/2000/svg" xmlns:xlink="http://www.w3.org/1999/xlink" viewBox="0 0 250 160"><defs><style>.cls-1{isolation:isolate;}.cls-2{fill:#a4d2d2;}.cls-3{fill:#f1f2f2;}.cls-17,.cls-24,.cls-3,.cls-36{mix-blend-mode:multiply;}.cls-4{fill:#30616f;}.cls-10,.cls-11,.cls-12,.cls-13,.cls-14,.cls-15,.cls-16,.cls-33,.cls-5,.cls-6,.cls-7,.cls-8,.cls-9{mix-blend-mode:screen;}.cls-5{fill:url(#linear-gradient);}.cls-6{fill:url(#linear-gradient-2);}.cls-7{fill:url(#linear-gradient-3);}.cls-8{fill:url(#linear-gradient-4);}.cls-9{fill:url(#linear-gradient-5);}.cls-10{fill:url(#linear-gradient-6);}.cls-11{fill:url(#linear-gradient-7);}.cls-12{fill:url(#linear-gradient-8);}.cls-13{fill:url(#linear-gradient-9);}.cls-14{fill:url(#linear-gradient-10);}.cls-15{fill:url(#linear-gradient-11);}.cls-16{fill:url(#linear-gradient-12);}.cls-17{fill:#afd6d6;}.cls-18{fill:#49a397;}.cls-19{fill:#68b4aa;}.cls-20{fill:#6fc1b6;}.cls-21{fill:#d8513b;}.cls-22{fill:#bf311d;}.cls-23{fill:#ff6a49;}.cls-24,.cls-37{fill:#e6e7e8;}.cls-25{fill:#01172e;}.cls-26{fill:#7c623f;}.cls-27{fill:#776c03;}.cls-28{fill:#695f00;}.cls-29{fill:#988e08;}.cls-30{fill:#abaa11;}.cls-31{fill:#92401a;}.cls-32{fill:#848fa3;}.cls-34{fill:#0c0b0c;}.cls-35{fill:#667591;}.cls-38{fill:none;}.cls-39{fill:#58595b;}.cls-40{fill:#d1d3d4;}.cls-41{fill:#f7f7f7;}.cls-42{fill:#212121;}.cls-43{fill:#9f461c;}.cls-44{fill:#43a7cc;}.cls-45{fill:#73bfdb;}.cls-46{fill:#fef493;}.cls-47{fill:#e6da6a;}.cls-48{fill:#fff594;}.cls-49{fill:#ff944b;}.cls-50{fill:#f7f3d5;}</style><linearGradient id="linear-gradient" x1="83.28" y1="73.01" x2="83.28" y2="159.7" gradientUnits="userSpaceOnUse"><stop offset="0" stop-color="#414042"/><stop offset="0.36" stop-color="#29292a"/><stop offset="0.88"/></linearGradient><linearGradient id="linear-gradient-2" x1="200.17" y1="73.01" x2="200.17" y2="159.7" xlink:href="#linear-gradient"/><linearGradient id="linear-gradient-3" x1="7.88" y1="73.01" x2="7.88" y2="159.7" xlink:href="#linear-gradient"/><linearGradient id="linear-gradient-4" x1="113.33" y1="73.01" x2="113.33" y2="159.7" xlink:href="#linear-gradient"/><linearGradient id="linear-gradient-5" x1="127.08" y1="73.01" x2="127.08" y2="159.7" xlink:href="#linear-gradient"/><linearGradient id="linear-gradient-6" x1="46.86" y1="73.01" x2="46.86" y2="159.7" xlink:href="#linear-gradient"/><linearGradient id="linear-gradient-7" x1="168.8" y1="73.01" x2="168.8" y2="159.7" xlink:href="#linear-gradient"/><linearGradient id="linear-gradient-8" x1="223.29" y1="73.01" x2="223.29" y2="159.7" xlink:href="#linear-gradient"/><linearGradient id="linear-gradient-9" x1="138.25" y1="73.01" x2="138.25" y2="159.7" xlink:href="#linear-gradient"/><linearGradient id="linear-gradient-10" x1="27.58" y1="73.01" x2="27.58" y2="159.7" xlink:href="#linear-gradient"/><linearGradient id="linear-gradient-11" x1="153.06" y1="73.01" x2="153.06" y2="159.7" xlink:href="#linear-gradient"/><linearGradient id="linear-gradient-12" x1="236.59" y1="73.01" x2="236.59" y2="159.7" xlink:href="#linear-gradient"/></defs><g class="cls-1"><g id="Layer_1" data-name="Layer 1"><rect class="cls-2" width="250" height="160"/><rect class="cls-3" y="104.4" width="250" height="17.97"/><rect class="cls-3" y="39.25" width="250" height="24.76"/><rect class="cls-3" y="6.15" width="250" height="28.5"/><rect class="cls-4" y="122.25" width="250" height="37.75"/><rect class="cls-5" x="65.14" y="122.25" width="36.28" height="37.75"/><rect class="cls-6" x="182.03" y="122.25" width="36.28" height="37.75"/><rect class="cls-7" x="5.61" y="122.25" width="4.54" height="37.75"/><rect class="cls-8" x="111.06" y="122.25" width="4.54" height="37.75"/><rect class="cls-9" x="122.72" y="122.25" width="8.72" height="37.75"/><rect class="cls-10" x="45.58" y="122.25" width="2.55" height="37.75"/><rect class="cls-11" x="167.52" y="122.25" width="2.55" height="37.75"/><rect class="cls-12" x="222.7" y="122.25" width="1.18" height="37.75"/><rect class="cls-13" x="137.66" y="122.25" width="1.18" height="37.75"/><rect class="cls-14" x="19.78" y="122.25" width="15.59" height="37.75"/><rect class="cls-15" x="145.27" y="122.25" width="15.59" height="37.75"/><rect class="cls-16" x="228.8" y="122.25" width="15.59" height="37.75"/><rect class="cls-17" y="122.25" width="250" height="2.41"/><path class="cls-18" d="M82.3,147.1c-17.81,0-34.57-.36-47.18-1C14.55,145,14.55,143.67,14.55,143s0-2,20.57-3.11c12.61-.66,29.37-1,47.18-1s34.58.37,47.19,1c20.56,1.08,20.56,2.4,20.56,3.11s0,2-20.56,3.11C116.88,146.74,100.12,147.1,82.3,147.1Z"/><path class="cls-19" d="M148.87,143c0,1.93-29.8,3.49-66.57,3.49S15.74,144.89,15.74,143s29.8-3.49,66.56-3.49S148.87,141,148.87,143Z"/><ellipse class="cls-20" cx="82.3" cy="142.96" rx="47.49" ry="1.06"/><path class="cls-21" d="M105,108.22h-4.34A1.63,1.63,0,0,0,99,109.85v20.66h7.61V109.85A1.64,1.64,0,0,0,105,108.22Z"/><path class="cls-21" d="M142.43,108.22h-4.34a1.63,1.63,0,0,0-1.64,1.63v20.66h7.61V109.85A1.63,1.63,0,0,0,142.43,108.22Z"/><rect class="cls-21" x="104.82" y="122.9" width="33.13" height="7.61"/><rect class="cls-22" x="106.59" y="115.61" width="29.87" height="7.29"/><path class="cls-23" d="M134.52,100h-26a1.92,1.92,0,0,0-1.93,1.93v13.66h29.86V102A1.92,1.92,0,0,0,134.52,100Z"/><path class="cls-24" d="M134.52,100h-2.21c0,6.23-.16,15.59-25.72,14.38v1.21h29.86V102A1.92,1.92,0,0,0,134.52,100Z"/><rect class="cls-25" x="101.72" y="130.51" width="2.17" height="1.5"/><rect class="cls-25" x="138.88" y="130.51" width="2.17" height="1.5"/><path class="cls-21" d="M26.94,108.22H22.6A1.63,1.63,0,0,0,21,109.85v20.66h7.61V109.85A1.64,1.64,0,0,0,26.94,108.22Z"/><path class="cls-21" d="M64.42,108.22H60.08a1.63,1.63,0,0,0-1.64,1.63v20.66h7.61V109.85A1.63,1.63,0,0,0,64.42,108.22Z"/><rect class="cls-21" x="26.81" y="122.9" width="33.13" height="7.61"/><rect class="cls-22" x="28.58" y="115.61" width="29.87" height="7.29"/><path class="cls-23" d="M56.51,100h-26A1.92,1.92,0,0,0,28.58,102v13.66H58.44V102A1.92,1.92,0,0,0,56.51,100Z"/><path class="cls-24" d="M56.51,100H54.29c0,6.23-.15,15.59-25.71,14.38v1.21H58.44V102A1.92,1.92,0,0,0,56.51,100Z"/><rect class="cls-25" x="23.71" y="130.51" width="2.17" height="1.5"/><rect class="cls-25" x="60.87" y="130.51" width="2.17" height="1.5"/><path class="cls-26" d="M11.51,127.51h-.06a.15.15,0,0,1-.13-.18c1.59-10.6-3.33-24-3.38-24.16A.14.14,0,0,1,8,103a.15.15,0,0,1,.2.09c0,.13,5,13.63,3.39,24.31A.15.15,0,0,1,11.51,127.51Z"/><path class="cls-27" d="M8.37,103.82s-1.59-.71-1.78-1.86.54-1.43,1.07-1.39S9.81,101.51,8.37,103.82Z"/><path class="cls-27" d="M9.37,107.14a3.28,3.28,0,0,1,.51-2.53,1,1,0,0,1,1.75.09C11.85,105.09,12.09,107,9.37,107.14Z"/><path class="cls-27" d="M10.44,111.21s.05-2.06,1.21-2.8a1.23,1.23,0,0,1,2,.54C13.82,109.46,13.63,111.73,10.44,111.21Z"/><path class="cls-27" d="M11.26,116.19s.44-2.42,2-3.09a1.47,1.47,0,0,1,2.27,1C15.58,114.73,14.93,117.39,11.26,116.19Z"/><path class="cls-27" d="M11.05,114.68s-.93-2.28-2.54-2.62-2.06.7-2,1.46S7.71,116.61,11.05,114.68Z"/><path class="cls-27" d="M10.11,110.28s-.81-1.89-2.17-2.15-1.71.61-1.66,1.25S7.34,112,10.11,110.28Z"/><path class="cls-27" d="M9,106.2s-.66-1.61-1.81-1.83-1.44.5-1.41,1S6.69,107.58,9,106.2Z"/><path class="cls-26" d="M11.64,126.6h0a.12.12,0,0,1-.08-.15c3-7.93,1.36-19.1,1.34-19.22a.12.12,0,0,1,.1-.13.11.11,0,0,1,.14.1c0,.11,1.64,11.34-1.35,19.33A.12.12,0,0,1,11.64,126.6Z"/><path class="cls-28" d="M13.09,107.78S12,107,12,106.05s.66-1,1.06-.89S14.58,106.24,13.09,107.78Z"/><path class="cls-28" d="M13.32,110.51s0-1.37.8-1.87a.82.82,0,0,1,1.34.36C15.57,109.33,15.45,110.85,13.32,110.51Z"/><path class="cls-28" d="M13.48,113.83s.37-1.58,1.4-2a1,1,0,0,1,1.46.74C16.38,113,15.86,114.76,13.48,113.83Z"/><path class="cls-28" d="M13.3,117.81s.73-1.8,2-2.06,1.62.55,1.59,1.15S15.94,119.34,13.3,117.81Z"/><path class="cls-28" d="M13.39,116.61s-.35-1.91-1.54-2.44-1.7.21-1.79.8S10.49,117.56,13.39,116.61Z"/><path class="cls-28" d="M13.38,113.06s-.32-1.6-1.33-2-1.42.19-1.48.69S11,113.89,13.38,113.06Z"/><path class="cls-28" d="M13.22,109.73s-.25-1.35-1.1-1.71-1.2.15-1.26.57S11.18,110.41,13.22,109.73Z"/><path class="cls-26" d="M13.52,128.5h.06a.14.14,0,0,0,.12-.16c-1.46-9.71,3-22,3.09-22.13a.14.14,0,0,0-.08-.18.13.13,0,0,0-.18.09c-.05.12-4.58,12.48-3.11,22.27A.14.14,0,0,0,13.52,128.5Z"/><path class="cls-29" d="M16.4,106.8s1.45-.66,1.63-1.71-.5-1.31-1-1.27S15.08,104.68,16.4,106.8Z"/><path class="cls-29" d="M15.48,109.84a3,3,0,0,0-.46-2.32,1,1,0,0,0-1.61.08C13.21,108,13,109.71,15.48,109.84Z"/><path class="cls-29" d="M14.5,113.57s0-1.89-1.11-2.57a1.13,1.13,0,0,0-1.84.5C11.4,112,11.58,114,14.5,113.57Z"/><path class="cls-29" d="M13.75,118.13s-.4-2.22-1.79-2.83-2,.24-2.07.92S10.39,119.22,13.75,118.13Z"/><path class="cls-29" d="M13.94,116.74s.85-2.09,2.33-2.39,1.88.64,1.84,1.33S17,118.51,13.94,116.74Z"/><path class="cls-29" d="M14.8,112.72s.75-1.74,2-2,1.56.57,1.52,1.15S17.34,114.24,14.8,112.72Z"/><path class="cls-29" d="M15.78,109s.61-1.47,1.66-1.68,1.32.46,1.29.94S17.94,110.24,15.78,109Z"/><path class="cls-26" d="M11.33,129.62h-.05a.11.11,0,0,1-.11-.11c-.05-8.1-5.27-17.55-5.33-17.64a.12.12,0,0,1,0-.16.12.12,0,0,1,.16,0c0,.09,5.3,9.59,5.35,17.74A.12.12,0,0,1,11.33,129.62Z"/><path class="cls-30" d="M6.23,112.3S5,112,4.69,111.12s.24-1.13.64-1.15S7,110.41,6.23,112.3Z"/><path class="cls-30" d="M7.37,114.67a2.49,2.49,0,0,1,.08-2,.79.79,0,0,1,1.32-.14C9,112.85,9.38,114.25,7.37,114.67Z"/><path class="cls-30" d="M8.64,117.58s-.21-1.54.58-2.23a.93.93,0,0,1,1.56.17C11,115.88,11.08,117.6,8.64,117.58Z"/><path class="cls-30" d="M9.83,121.2s0-1.86,1.1-2.53a1.11,1.11,0,0,1,1.81.49C12.88,119.61,12.71,121.67,9.83,121.2Z"/><path class="cls-30" d="M9.5,120.09s-1-1.59-2.21-1.65-1.45.76-1.33,1.32S7.23,121.92,9.5,120.09Z"/><path class="cls-30" d="M8.28,116.92s-.82-1.32-1.86-1.35-1.21.66-1.1,1.12S6.41,118.49,8.28,116.92Z"/><path class="cls-30" d="M7,114s-.68-1.12-1.56-1.16-1,.55-.93.94S5.42,115.3,7,114Z"/><path class="cls-26" d="M12.9,129.34h0a.11.11,0,0,0,.1-.1c0-7,4.56-15.2,4.61-15.29a.1.1,0,0,0,0-.13.1.1,0,0,0-.14,0c0,.08-4.6,8.31-4.63,15.38A.1.1,0,0,0,12.9,129.34Z"/><path class="cls-30" d="M17.31,114.33s1.1-.3,1.34-1-.21-1-.56-1S16.61,112.69,17.31,114.33Z"/><path class="cls-30" d="M16.33,116.38a2.13,2.13,0,0,0-.08-1.69.67.67,0,0,0-1.14-.11C14.93,114.8,14.58,116,16.33,116.38Z"/><path class="cls-30" d="M15.23,118.9a2.53,2.53,0,0,0-.51-1.93.8.8,0,0,0-1.35.15C13.22,117.43,13.11,118.92,15.23,118.9Z"/><path class="cls-30" d="M14.19,122s0-1.61-.95-2.19a1,1,0,0,0-1.56.42C11.55,120.66,11.7,122.44,14.19,122Z"/><path class="cls-30" d="M14.48,121.08s.83-1.38,1.91-1.43,1.26.66,1.15,1.14S16.45,122.67,14.48,121.08Z"/><path class="cls-30" d="M15.53,118.34s.72-1.15,1.62-1.18,1,.57,1,1S17.16,119.69,15.53,118.34Z"/><path class="cls-30" d="M16.63,115.8s.59-1,1.36-1,.88.47.81.81S18,116.93,16.63,115.8Z"/><path class="cls-31" d="M16,122.58H8a.76.76,0,0,0-.76.76v3.25a4.06,4.06,0,0,0,4.06,4.06H12.7a4.06,4.06,0,0,0,4.06-4.06v-3.25A.76.76,0,0,0,16,122.58Z"/><path class="cls-24" d="M16.76,126.59v-3.25a.76.76,0,0,0-.76-.76H14.35c.11,1.91.44,6.84-5.44,7.3a4,4,0,0,0,2.38.77H12.7A4.06,4.06,0,0,0,16.76,126.59Z"/><ellipse class="cls-21" cx="82.42" cy="130.63" rx="5.46" ry="0.63"/><path class="cls-25" d="M83.31,130.65a3.5,3.5,0,0,1-1.79,0V111.71h1.79Z"/><path class="cls-25" d="M82.53,118.65v-.75c.73,0,1-.44,1.39-1.28a3.89,3.89,0,0,1,2.83-2.52c2.7-.59,2.37-3.55,2.36-3.67l.74-.09a3.94,3.94,0,0,1-2.94,4.49A3.19,3.19,0,0,0,84.59,117C84.19,117.78,83.76,118.65,82.53,118.65Z"/><path class="cls-25" d="M82.3,118.65v-.75c-.73,0-1-.44-1.39-1.28a3.89,3.89,0,0,0-2.83-2.52c-2.7-.59-2.37-3.55-2.36-3.67l-.74-.09a3.94,3.94,0,0,0,2.94,4.49A3.17,3.17,0,0,1,80.24,117C80.65,117.78,81.07,118.65,82.3,118.65Z"/><path class="cls-22" d="M95.48,111.73H69.35A1.34,1.34,0,0,1,68,110.38h0A1.35,1.35,0,0,1,69.35,109H95.48a1.35,1.35,0,0,1,1.35,1.35h0A1.34,1.34,0,0,1,95.48,111.73Z"/><polygon class="cls-17" points="153.06 63.89 153.06 66.41 153.06 66.93 153.06 124.72 156.1 124.72 156.1 66.93 190.19 66.93 190.19 124.72 193.23 124.72 193.23 66.93 193.23 66.41 193.23 63.89 153.06 63.89"/><rect class="cls-32" x="156.1" y="66.93" width="34.09" height="57.79"/><g class="cls-33"><polygon class="cls-34" points="156.1 78.63 156.1 81.42 166.35 66.93 164.38 66.93 156.1 78.63"/><polygon class="cls-34" points="190.19 68.33 156.1 116.54 156.1 124.72 160.58 124.72 190.19 82.85 190.19 68.33"/><polygon class="cls-34" points="181.46 66.93 179.48 66.93 156.1 99.99 156.1 102.78 181.46 66.93"/><polygon class="cls-34" points="178.05 66.93 167.78 66.93 156.1 83.44 156.1 97.97 178.05 66.93"/><polygon class="cls-34" points="190.19 84.87 162.01 124.72 163.99 124.72 190.19 87.67 190.19 84.87"/><polygon class="cls-34" points="190.19 122.62 190.19 119.83 186.73 124.72 188.71 124.72 190.19 122.62"/><polygon class="cls-34" points="189.75 66.93 187.78 66.93 156.1 111.72 156.1 114.52 189.75 66.93"/><polygon class="cls-34" points="190.19 117.8 190.19 103.28 175.03 124.72 185.3 124.72 190.19 117.8"/><polygon class="cls-34" points="190.19 101.26 190.19 98.47 171.63 124.72 173.6 124.72 190.19 101.26"/></g><rect class="cls-35" x="172.64" y="66.93" width="1.02" height="57.79"/><polygon class="cls-24" points="189.01 66.93 188.19 66.93 158.11 66.93 156.1 66.93 156.1 68.94 156.1 124.72 158.11 124.72 158.11 68.94 188.19 68.94 188.19 124.72 190.19 124.72 190.19 66.93 189.01 66.93"/><rect class="cls-17" x="195.11" y="89.93" width="3.65" height="6.6"/><rect class="cls-35" x="196.33" y="91.15" width="1.21" height="1.21"/><rect class="cls-35" x="196.33" y="94.1" width="1.21" height="1.21"/><rect class="cls-17" x="161.4" y="56.51" width="23.5" height="4.19"/><rect class="cls-35" x="171.78" y="47.59" width="2.73" height="22.04" transform="translate(231.75 -114.54) rotate(90)"/><polygon class="cls-17" points="204.1 63.89 204.1 66.41 204.1 66.93 204.1 124.72 207.13 124.72 207.13 66.93 241.23 66.93 241.23 124.72 244.27 124.72 244.27 66.93 244.27 66.41 244.27 63.89 204.1 63.89"/><rect class="cls-32" x="207.14" y="66.93" width="34.09" height="57.79"/><g class="cls-33"><polygon class="cls-34" points="207.13 78.63 207.13 81.42 217.38 66.93 215.41 66.93 207.13 78.63"/><polygon class="cls-34" points="241.23 68.33 207.13 116.54 207.13 124.72 211.62 124.72 241.23 82.85 241.23 68.33"/><polygon class="cls-34" points="232.49 66.93 230.51 66.93 207.13 99.99 207.13 102.78 232.49 66.93"/><polygon class="cls-34" points="229.09 66.93 218.81 66.93 207.13 83.44 207.13 97.97 229.09 66.93"/><polygon class="cls-34" points="241.23 84.87 213.04 124.72 215.02 124.72 241.23 87.67 241.23 84.87"/><polygon class="cls-34" points="241.23 122.62 241.23 119.83 237.76 124.72 239.74 124.72 241.23 122.62"/><polygon class="cls-34" points="240.79 66.93 238.81 66.93 207.13 111.72 207.13 114.52 240.79 66.93"/><polygon class="cls-34" points="241.23 117.8 241.23 103.28 226.06 124.72 236.33 124.72 241.23 117.8"/><polygon class="cls-34" points="241.23 101.26 241.23 98.47 222.66 124.72 224.63 124.72 241.23 101.26"/></g><rect class="cls-35" x="223.67" y="66.93" width="1.02" height="57.79"/><polygon class="cls-24" points="240.04 66.93 239.22 66.93 209.14 66.93 207.13 66.93 207.13 68.94 207.13 124.72 209.14 124.72 209.14 68.94 239.22 68.94 239.22 124.72 241.23 124.72 241.23 66.93 240.04 66.93"/><rect class="cls-17" x="212.43" y="56.51" width="23.5" height="4.19"/><rect class="cls-35" x="222.81" y="47.59" width="2.73" height="22.04" transform="translate(282.79 -165.58) rotate(90)"/><g class="cls-36"><path class="cls-37" d="M89.79,51.13a6.11,6.11,0,0,0-.24-.89l-.06-.16a6.35,6.35,0,0,0-.38-.84.41.41,0,0,1,0-.09,7.85,7.85,0,0,0-.52-.76l0,0a5.15,5.15,0,0,0-.64-.68l-.1-.09A6.44,6.44,0,0,0,87,47L86.91,47a5.26,5.26,0,0,0-.85-.44h0a5,5,0,0,0-1-.3l0,0h0a6.22,6.22,0,0,0-5,11.16h0s0,0,0,0a6.65,6.65,0,0,0,.73.43l.13.06a6.81,6.81,0,0,0,.74.31l.07,0a5.45,5.45,0,0,0,.82.2l.19,0a6.4,6.4,0,0,0,.88.07,6.23,6.23,0,0,0,6.23-6.23,6.39,6.39,0,0,0-.09-1C89.8,51.23,89.8,51.18,89.79,51.13Z"/><rect class="cls-37" x="32.02" y="54.76" width="25.21" height="16.26"/><rect class="cls-37" x="72.35" y="71.02" width="10.19" height="11.59"/><rect class="cls-37" x="123.24" y="66.99" width="10.19" height="11.59"/><rect class="cls-37" x="98.97" y="60.61" width="10.19" height="11.59"/></g><path class="cls-38" d="M84.27,50.6v0A0,0,0,0,1,84.27,50.6Z"/><path class="cls-39" d="M76.19,51.63a6.23,6.23,0,1,1,6.23,6.23A6.23,6.23,0,0,1,76.19,51.63Z"/><path class="cls-40" d="M76.81,51.63a5.61,5.61,0,1,1,5.61,5.61A5.6,5.6,0,0,1,76.81,51.63Z"/><circle class="cls-41" cx="82.42" cy="51.63" r="5.32"/><rect class="cls-42" x="82.11" y="51.32" width="0.62" height="0.62"/><rect class="cls-42" x="83.29" y="50.6" width="0.36" height="3.46" transform="translate(-7.13 91.03) rotate(-55.21)"/><rect class="cls-42" x="80.84" y="49.94" width="4.63" height="0.33" transform="translate(-0.06 100.12) rotate(-62.08)"/><rect class="cls-42" x="82.3" y="46.45" width="0.22" height="0.7"/><rect class="cls-42" x="77.23" y="51.52" width="0.7" height="0.22"/><rect class="cls-42" x="82.3" y="56.11" width="0.22" height="0.7"/><rect class="cls-42" x="86.9" y="51.52" width="0.7" height="0.22"/><path class="cls-3" d="M88.64,51.63a6.23,6.23,0,0,0-4.84-6.07c.47,2.17,1.54,9.52-5,11.16a6.22,6.22,0,0,0,9.81-5.09Z"/><rect class="cls-43" x="30.77" y="54.12" width="25.21" height="16.26"/><g class="cls-36"><rect class="cls-40" x="31.44" y="54.79" width="23.87" height="14.92"/></g><rect class="cls-44" x="31.69" y="55.04" width="23.37" height="14.41" transform="translate(86.75 124.49) rotate(180)"/><rect class="cls-45" x="32.53" y="55.88" width="21.69" height="12.73"/><rect class="cls-46" x="35.89" y="59.24" width="14.97" height="6.01"/><rect class="cls-43" x="71.09" y="70.38" width="10.19" height="11.59"/><g class="cls-36"><rect class="cls-40" x="71.76" y="71.05" width="8.85" height="10.25"/></g><rect class="cls-47" x="72.02" y="71.3" width="8.34" height="9.74"/><rect class="cls-48" x="72.86" y="72.14" width="6.67" height="8.06"/><rect class="cls-49" x="74.73" y="74.51" width="2.91" height="3.33"/><rect class="cls-43" x="121.98" y="66.35" width="10.19" height="11.59"/><g class="cls-36"><rect class="cls-40" x="122.65" y="67.02" width="8.85" height="10.25"/></g><rect class="cls-47" x="122.91" y="67.27" width="8.34" height="9.74"/><rect class="cls-48" x="123.75" y="68.11" width="6.67" height="8.06"/><rect class="cls-49" x="125.62" y="70.48" width="2.91" height="3.33"/><rect class="cls-43" x="97.71" y="59.97" width="10.19" height="11.59"/><g class="cls-36"><rect class="cls-40" x="98.38" y="60.64" width="8.85" height="10.25"/></g><rect class="cls-44" x="98.64" y="60.89" width="8.34" height="9.74"/><rect class="cls-45" x="99.48" y="61.73" width="6.67" height="8.06"/><rect class="cls-46" x="101.35" y="64.1" width="2.91" height="3.33"/><path class="cls-24" d="M41.79,12.68a10.56,10.56,0,0,1-2.23-4.24V0h-.27V8.43a10.29,10.29,0,0,1-2.23,4.25,5.36,5.36,0,0,0-.71,4.95c0-.15.19-.29.53-.4-.34.11-.53.25-.53.4,0,.4,1.38.72,3.08.72s3.08-.32,3.08-.72h0A5.34,5.34,0,0,0,41.79,12.68Zm.69,4.85a.08.08,0,0,1,0,0,.07.07,0,0,1,0,.05.2.2,0,0,0-.06-.14l0,0Zm-.09-.1,0,0a.74.74,0,0,0-.16-.12l.1.06Zm-.56-.25.12,0h0l-.27-.08h0A.53.53,0,0,1,41.83,17.18Zm-.43-.11.13,0L41.22,17h0Zm-1.25-.14h0Zm.75.07.17,0h0l-.29,0Z"/><path class="cls-24" d="M57.53,8.6a10.42,10.42,0,0,1-2.22-4.24V0H55V4.35A10.53,10.53,0,0,1,52.81,8.6a5.37,5.37,0,0,0-.72,5c0-.14.18-.28.49-.39-.31.11-.49.25-.49.39,0,.4,1.38.72,3.08.72s3.08-.32,3.08-.72h0A5.34,5.34,0,0,0,57.53,8.6Zm.69,4.85s0,0,0,.05a.09.09,0,0,1,0,.05.22.22,0,0,0-.06-.14l0,0Zm-.09-.1,0,.05a.59.59,0,0,0-.17-.13l.1.06Zm-.56-.25.12,0h0l-.27-.08h0Zm-.43-.1.13,0L57,13h0A1,1,0,0,1,57.14,13Zm-1.25-.15h0Zm.75.07.17,0h0l-.29,0Z"/><path class="cls-24" d="M51.75,19.46a10.39,10.39,0,0,1-2.22-4.25V10.1a5.87,5.87,0,0,0,0-3.06V0h-.27V6.35a5.19,5.19,0,0,0-.53-.87A10.66,10.66,0,0,1,46.5,1.23V0h-.27V1.23A10.42,10.42,0,0,1,44,5.48a5.34,5.34,0,0,0-.71,4.94c0-.15.19-.29.52-.4-.33.11-.52.25-.52.4,0,.4,1.38.72,3.08.72a6.53,6.53,0,0,0,2.89-.48v4.55A10.53,10.53,0,0,1,47,19.46a5.35,5.35,0,0,0-.72,4.94c0-.15.19-.28.53-.4-.34.12-.53.25-.53.4,0,.4,1.38.72,3.08.72s3.08-.32,3.08-.72h0A5.32,5.32,0,0,0,51.75,19.46Zm.69,4.84a.17.17,0,0,1,0,.05.09.09,0,0,1,0,0,.19.19,0,0,0-.06-.13l0,0Zm-.09-.09,0,0a.84.84,0,0,0-.17-.13l.1.07A0,0,0,0,1,52.35,24.21ZM51.79,24l.12,0h0l-.27-.08h0Zm-.43-.1.13,0-.31-.06h0Zm-1.25-.15h0Zm.75.07.17,0h0l-.29,0ZM48.76,10l.13,0h0l-.28-.08h0Zm-.43-.1.13,0a1.33,1.33,0,0,0-.3-.06h0A.86.86,0,0,1,48.33,9.87Zm-1.24-.15h0Zm.75.07.16,0h0l-.29,0Zm1.37.35,0,0h0Z"/><path class="cls-24" d="M101.23,12.68A10.32,10.32,0,0,1,99,8.44V0h-.27V8.43a10.29,10.29,0,0,1-2.23,4.25,5.37,5.37,0,0,0-.72,4.95c0-.15.2-.29.53-.4-.33.11-.53.25-.53.4,0,.4,1.38.72,3.08.72s3.08-.32,3.08-.72h0A5.34,5.34,0,0,0,101.23,12.68Zm.68,4.85,0,0v.05a.2.2,0,0,0-.06-.14l0,0Zm-.08-.1,0,0a.83.83,0,0,0-.17-.12l.1.06Zm-.57-.25.12,0h0l-.28-.08h0A.53.53,0,0,1,101.26,17.18Zm-.43-.11.13,0-.3-.06h0Zm-1.25-.14h0Zm.75.07.17,0h0l-.29,0Z"/><path class="cls-24" d="M117,8.6a10.44,10.44,0,0,1-2.23-4.24V0h-.27V4.35a10.29,10.29,0,0,1-2.23,4.25,5.37,5.37,0,0,0-.72,5c0-.14.19-.28.5-.39-.31.11-.49.25-.49.39,0,.4,1.37.72,3.07.72s3.08-.32,3.08-.72h0A5.34,5.34,0,0,0,117,8.6Zm.68,4.85a.13.13,0,0,1,0,.05v.05a.27.27,0,0,0-.05-.14l0,0Zm-.08-.1,0,.05a.48.48,0,0,0-.17-.13l.1.06ZM117,13.1a.42.42,0,0,1,.12,0h0l-.28-.08h0Zm-.43-.1.13,0-.3,0h0A.86.86,0,0,1,116.57,13Zm-1.24-.15h0Zm.75.07.16,0h0l-.29,0Z"/><path class="cls-24" d="M111.19,19.46A10.41,10.41,0,0,1,109,15.21V10.1A5.67,5.67,0,0,0,109,7V0h-.27V6.35a4.6,4.6,0,0,0-.53-.87,10.52,10.52,0,0,1-2.22-4.25V0h-.27V1.23a10.54,10.54,0,0,1-2.23,4.25,5.34,5.34,0,0,0-.72,4.94c0-.15.19-.29.53-.4-.33.11-.53.25-.53.4,0,.4,1.38.72,3.08.72a6.49,6.49,0,0,0,2.89-.48v4.55a10.29,10.29,0,0,1-2.23,4.25,5.35,5.35,0,0,0-.72,4.94c0-.15.2-.28.53-.4-.33.12-.52.25-.52.4,0,.4,1.37.72,3.07.72s3.08-.32,3.08-.72h0A5.32,5.32,0,0,0,111.19,19.46Zm.68,4.84s0,0,0,.05v0a.24.24,0,0,0-.05-.13l0,0Zm-.08-.09,0,0a.63.63,0,0,0-.17-.13l.1.07Zm-.57-.26.12,0h0l-.28-.08h0Zm-.43-.1.13,0-.3-.06h0Zm-1.24-.15h0Zm.75.07.16,0h0l-.29,0ZM108.2,10l.12,0h0l-.27-.08h0Zm-.43-.1.13,0a1.55,1.55,0,0,0-.31-.06h0A1,1,0,0,1,107.77,9.87Zm-1.25-.15h0Zm.75.07.17,0h0l-.29,0Zm1.37.35,0,0h0Z"/><path class="cls-24" d="M160.66,12.68a10.56,10.56,0,0,1-2.23-4.24V0h-.27V8.43a10.29,10.29,0,0,1-2.23,4.25,5.36,5.36,0,0,0-.71,4.95c0-.15.19-.29.52-.4-.33.11-.52.25-.52.4,0,.4,1.38.72,3.08.72s3.08-.32,3.08-.72h0A5.34,5.34,0,0,0,160.66,12.68Zm.69,4.85a.08.08,0,0,1,0,0,.43.43,0,0,1,0,.05.25.25,0,0,0-.06-.14l0,0Zm-.09-.1,0,0a.74.74,0,0,0-.16-.12l.1.06S161.25,17.42,161.26,17.43Zm-.56-.25.12,0h0l-.28-.08h0A.53.53,0,0,1,160.7,17.18Zm-.44-.11.13,0-.3-.06h0ZM159,16.93h0Zm.75.07.16,0h0l-.29,0Z"/><path class="cls-24" d="M176.4,8.6a10.56,10.56,0,0,1-2.23-4.24V0h-.27V4.35a10.29,10.29,0,0,1-2.23,4.25,5.36,5.36,0,0,0-.71,5c0-.14.18-.28.49-.39-.31.11-.49.25-.49.39,0,.4,1.38.72,3.08.72s3.08-.32,3.08-.72h0A5.34,5.34,0,0,0,176.4,8.6Zm.69,4.85s0,0,0,.05,0,0,0,.05a.22.22,0,0,0-.06-.14l0,0Zm-.09-.1,0,.05a.53.53,0,0,0-.16-.13l.1.06Zm-.56-.25.12,0h0l-.27-.08h0ZM176,13l.12,0-.3,0h0A1,1,0,0,1,176,13Zm-1.25-.15h0Zm.75.07.17,0h0l-.29,0Z"/><path class="cls-24" d="M170.62,19.46a10.53,10.53,0,0,1-2.23-4.25V10.1a5.67,5.67,0,0,0,0-3.06V0h-.27V6.35a4.55,4.55,0,0,0-.52-.87,10.54,10.54,0,0,1-2.23-4.25V0h-.27V1.23a10.42,10.42,0,0,1-2.23,4.25,5.34,5.34,0,0,0-.72,4.94c0-.15.2-.29.53-.4-.33.11-.52.25-.52.4,0,.4,1.37.72,3.07.72a6.46,6.46,0,0,0,2.89-.48v4.55a10.29,10.29,0,0,1-2.23,4.25,5.34,5.34,0,0,0-.71,4.94c0-.15.19-.28.52-.4-.33.12-.52.25-.52.4,0,.4,1.38.72,3.08.72s3.08-.32,3.08-.72h0A5.32,5.32,0,0,0,170.62,19.46Zm.69,4.84a.17.17,0,0,1,0,.05s0,0,0,0a.19.19,0,0,0-.06-.13l0,0Zm-.09-.09a.08.08,0,0,1,0,0,.75.75,0,0,0-.16-.13l.1.07S171.21,24.2,171.22,24.21Zm-.56-.26.12,0h0l-.27-.08h0Zm-.43-.1.12,0-.3-.06h0ZM169,23.7h0Zm.75.07.17,0h0l-.29,0ZM167.63,10l.12,0h0l-.28-.08h0Zm-.43-.1.13,0-.3-.06h0A.86.86,0,0,1,167.2,9.87ZM166,9.72h0Zm.75.07.16,0h0l-.29,0Zm1.36.35.05,0h0A.11.11,0,0,0,168.07,10.14Z"/><path class="cls-24" d="M220.1,12.68a10.32,10.32,0,0,1-2.23-4.24V0h-.27V8.43a10.29,10.29,0,0,1-2.23,4.25,5.37,5.37,0,0,0-.72,4.95c0-.15.2-.29.53-.4-.33.11-.53.25-.53.4,0,.4,1.38.72,3.08.72s3.08-.32,3.08-.72h0A5.34,5.34,0,0,0,220.1,12.68Zm.68,4.85a.08.08,0,0,1,0,0,.07.07,0,0,1,0,.05.2.2,0,0,0-.06-.14l0,0Zm-.09-.1.05,0a.83.83,0,0,0-.17-.12l.1.06Zm-.56-.25.12,0h0l-.27-.08h0A.53.53,0,0,1,220.13,17.18Zm-.43-.11.13,0-.3-.06h0Zm-1.25-.14h0Zm.75.07.17,0h0l-.29,0Z"/><path class="cls-24" d="M235.84,8.6a10.32,10.32,0,0,1-2.23-4.24V0h-.27V4.35a10.29,10.29,0,0,1-2.23,4.25,5.37,5.37,0,0,0-.72,5c0-.14.19-.28.49-.39-.3.11-.49.25-.49.39,0,.4,1.38.72,3.08.72s3.08-.32,3.08-.72h0A5.34,5.34,0,0,0,235.84,8.6Zm.68,4.85,0,.05v.05a.22.22,0,0,0-.06-.14l0,0Zm-.08-.1,0,.05a.59.59,0,0,0-.17-.13l.1.06Zm-.57-.25.12,0h0l-.28-.08h0Zm-.43-.1.13,0-.3,0h0A.86.86,0,0,1,235.44,13Zm-1.25-.15h0Zm.75.07.17,0h0l-.29,0Z"/><path class="cls-24" d="M230.06,19.46a10.29,10.29,0,0,1-2.23-4.25V10.1a5.67,5.67,0,0,0,0-3.06V0h-.27V6.35a5.19,5.19,0,0,0-.53-.87,10.66,10.66,0,0,1-2.23-4.25V0h-.27V1.23a10.42,10.42,0,0,1-2.23,4.25,5.34,5.34,0,0,0-.71,4.94c0-.15.19-.29.53-.4-.34.11-.53.25-.53.4,0,.4,1.38.72,3.08.72a6.53,6.53,0,0,0,2.89-.48v4.55a10.29,10.29,0,0,1-2.23,4.25,5.35,5.35,0,0,0-.72,4.94c0-.15.2-.28.53-.4-.33.12-.53.25-.53.4,0,.4,1.38.72,3.08.72s3.08-.32,3.08-.72h0A5.32,5.32,0,0,0,230.06,19.46Zm.68,4.84a.17.17,0,0,1,0,.05.09.09,0,0,1,0,0,.19.19,0,0,0-.06-.13l0,0Zm-.08-.09s0,0,0,0a.84.84,0,0,0-.17-.13l.1.07Zm-.57-.26.12,0h0l-.28-.08h0Zm-.43-.1.13,0-.3-.06h0Zm-1.24-.15h0Zm.74.07.17,0h0l-.29,0ZM227.07,10l.12,0h0l-.27-.08h0Zm-.43-.1.12,0a1.33,1.33,0,0,0-.3-.06h0A1,1,0,0,1,226.64,9.87Zm-1.25-.15h0Zm.75.07.17,0h0l-.29,0Zm1.37.35.05,0h0Z"/><rect class="cls-22" x="27.84" width="0.27" height="20.06"/><path class="cls-23" d="M31.06,26.76s0,0,0,0a.14.14,0,0,0,0-.06h0s0,0,0,0,0,0,0-.05l0,0-.11-.07a2.42,2.42,0,0,0-.31-.13l-.12,0-.12,0-.1,0-.22-.05-.17,0-.16,0a.9.9,0,0,0-.16,0A13.16,13.16,0,0,0,28,26.05c-1.7,0-3.08.32-3.08.71a5.35,5.35,0,0,1,.71-4.94,10.41,10.41,0,0,0,2.24-4.26h.26a10.39,10.39,0,0,0,2.23,4.26A5.32,5.32,0,0,1,31.06,26.76Z"/><path class="cls-22" d="M31.06,26.77c0,.39-1.38.72-3.08.72s-3.08-.33-3.08-.72S26.28,26,28,26,31.06,26.37,31.06,26.77Z"/><path class="cls-50" d="M28,26c-.33,0-.64,0-.94,0a.94.94,0,0,0,1.87,0C28.62,26.06,28.3,26,28,26Z"/><path class="cls-24" d="M31.06,26.76s0,0,0,0a.14.14,0,0,0,0-.06h0l0,0a.12.12,0,0,0,0-.05l0,0-.11-.07a2.42,2.42,0,0,0-.31-.13l-.12,0-.12,0-.1,0-.22-.05-.17,0-.16,0a.9.9,0,0,0-.16,0h0c.39-1.62.43-4-.53-5.29a5.84,5.84,0,0,1-1-3.28h.18a10.39,10.39,0,0,0,2.23,4.26A5.32,5.32,0,0,1,31.06,26.76Z"/><rect class="cls-22" x="43.58" width="0.27" height="15.99"/><path class="cls-23" d="M46.8,22.69a.43.43,0,0,0,0-.05.14.14,0,0,0,0-.06h0l0,0s0,0,0-.05l0,0-.1-.06a3.37,3.37,0,0,0-.32-.14l-.12,0a.27.27,0,0,0-.12,0,.38.38,0,0,0-.1,0l-.21-.05-.18,0-.15,0-.17,0A13.16,13.16,0,0,0,43.72,22c-1.7,0-3.08.32-3.08.72a5.36,5.36,0,0,1,.71-5,10.23,10.23,0,0,0,2.24-4.26h.26a10.33,10.33,0,0,0,2.23,4.26A5.34,5.34,0,0,1,46.8,22.69Z"/><path class="cls-22" d="M46.8,22.69c0,.4-1.38.72-3.08.72s-3.08-.32-3.08-.72S42,22,43.72,22,46.8,22.29,46.8,22.69Z"/><path class="cls-50" d="M43.72,22q-.49,0-.93,0a.92.92,0,0,0,.93.9.94.94,0,0,0,.93-.9C44.36,22,44,22,43.72,22Z"/><path class="cls-24" d="M46.8,22.69a.43.43,0,0,0,0-.05.14.14,0,0,0,0-.06h0s0,0,0,0a.12.12,0,0,0,0-.05l0,0-.1-.06a3.37,3.37,0,0,0-.32-.14l-.12,0a.27.27,0,0,0-.12,0,.38.38,0,0,0-.1,0l-.21-.05-.18,0-.15,0-.17,0h0c.4-1.62.43-4-.53-5.29a5.87,5.87,0,0,1-1-3.28h.18a10.33,10.33,0,0,0,2.23,4.26A5.34,5.34,0,0,1,46.8,22.69Z"/><rect class="cls-22" x="37.8" width="0.27" height="26.84"/><path class="cls-23" d="M41,33.54s0,0,0,0,0,0,0-.05h0l0,0-.05,0s0,0,0,0l-.1-.06a1.93,1.93,0,0,0-.32-.13l-.12,0-.12,0-.1,0-.22,0a.74.74,0,0,0-.17,0l-.15,0-.17,0a11,11,0,0,0-1.47-.09c-1.7,0-3.08.32-3.08.72a5.34,5.34,0,0,1,.71-4.94,10.27,10.27,0,0,0,2.24-4.27h.26A10.37,10.37,0,0,0,40.3,28.6,5.31,5.31,0,0,1,41,33.54Z"/><path class="cls-22" d="M41,33.54c0,.4-1.38.72-3.08.72s-3.08-.32-3.08-.72,1.38-.72,3.08-.72S41,33.14,41,33.54Z"/><path class="cls-50" d="M37.94,32.82q-.49,0-.93,0a.93.93,0,0,0,.93.91.94.94,0,0,0,.93-.91C38.58,32.83,38.26,32.82,37.94,32.82Z"/><path class="cls-24" d="M41,33.54s0,0,0,0,0,0,0-.05h0s0,0,0,0l-.05,0s0,0,0,0l-.1-.06a1.93,1.93,0,0,0-.32-.13l-.12,0-.12,0-.1,0-.22,0a.74.74,0,0,0-.17,0l-.15,0-.17,0h0c.4-1.62.43-4-.53-5.29a5.87,5.87,0,0,1-1-3.28h.18A10.37,10.37,0,0,0,40.3,28.6,5.31,5.31,0,0,1,41,33.54Z"/><rect class="cls-22" x="34.78" width="0.27" height="12.86"/><path class="cls-23" d="M38,19.56v0s0,0,0-.06h0l0,0,0-.05,0,0-.1-.06a2.52,2.52,0,0,0-.32-.14l-.12,0-.11,0-.11,0L36.88,19l-.17,0-.16,0-.16,0a11,11,0,0,0-1.47-.09c-1.7,0-3.09.32-3.09.72a5.37,5.37,0,0,1,.72-4.95,10.33,10.33,0,0,0,2.23-4.26H35a10.47,10.47,0,0,0,2.24,4.26A5.34,5.34,0,0,1,38,19.56Z"/><path class="cls-22" d="M38,19.56c0,.4-1.37.72-3.08.72s-3.07-.32-3.07-.72,1.37-.72,3.07-.72S38,19.16,38,19.56Z"/><path class="cls-50" d="M34.91,18.84q-.48,0-.93,0a.94.94,0,0,0,1.87,0C35.55,18.85,35.24,18.84,34.91,18.84Z"/><path class="cls-24" d="M38,19.56v0s0,0,0-.06h0l0,0,0-.05,0,0-.1-.06a2.52,2.52,0,0,0-.32-.14l-.12,0-.11,0-.11,0L36.88,19l-.17,0-.16,0-.16,0h0c.4-1.62.44-4-.52-5.29a5.79,5.79,0,0,1-1-3.28H35a10.47,10.47,0,0,0,2.24,4.26A5.34,5.34,0,0,1,38,19.56Z"/><rect class="cls-22" x="87.28" width="0.27" height="20.06"/><path class="cls-23" d="M90.49,26.76a.06.06,0,0,0,0,0,.14.14,0,0,0,0-.06h0l0,0,0-.05s0,0,0,0l-.1-.07a2.63,2.63,0,0,0-.32-.13l-.12,0-.12,0-.1,0-.21-.05-.17,0-.16,0a.86.86,0,0,0-.17,0,13.16,13.16,0,0,0-1.47-.08c-1.7,0-3.08.32-3.08.71a5.35,5.35,0,0,1,.72-4.94,10.39,10.39,0,0,0,2.23-4.26h.26a10.41,10.41,0,0,0,2.24,4.26A5.32,5.32,0,0,1,90.49,26.76Z"/><path class="cls-22" d="M90.49,26.77c0,.39-1.38.72-3.08.72s-3.08-.33-3.08-.72S85.71,26,87.41,26,90.49,26.37,90.49,26.77Z"/><path class="cls-50" d="M87.41,26c-.32,0-.64,0-.93,0a.94.94,0,0,0,1.87,0C88.05,26.06,87.74,26,87.41,26Z"/><path class="cls-24" d="M90.49,26.76a.06.06,0,0,0,0,0,.14.14,0,0,0,0-.06h0l0,0,0-.05s0,0,0,0l-.1-.07a2.63,2.63,0,0,0-.32-.13l-.12,0-.12,0-.1,0-.21-.05-.17,0-.16,0a.86.86,0,0,0-.17,0h0c.4-1.62.43-4-.53-5.29a5.9,5.9,0,0,1-1-3.28h.17a10.41,10.41,0,0,0,2.24,4.26A5.32,5.32,0,0,1,90.49,26.76Z"/><rect class="cls-22" x="103.02" width="0.27" height="15.99"/><path class="cls-23" d="M106.23,22.69a.07.07,0,0,0,0-.05.14.14,0,0,0,0-.06h0a.08.08,0,0,0,0,0,.12.12,0,0,0,0-.05l0,0-.1-.06a2.52,2.52,0,0,0-.32-.14l-.12,0a.27.27,0,0,0-.12,0,.29.29,0,0,0-.1,0l-.21-.05-.17,0-.16,0-.17,0a13.16,13.16,0,0,0-1.47-.08c-1.7,0-3.08.32-3.08.72a5.37,5.37,0,0,1,.72-5A10.33,10.33,0,0,0,103,13.48h.26a10.47,10.47,0,0,0,2.24,4.26A5.34,5.34,0,0,1,106.23,22.69Z"/><path class="cls-22" d="M106.23,22.69c0,.4-1.38.72-3.08.72s-3.08-.32-3.08-.72,1.38-.72,3.08-.72S106.23,22.29,106.23,22.69Z"/><path class="cls-50" d="M103.15,22c-.32,0-.64,0-.93,0a.94.94,0,0,0,1.87,0C103.79,22,103.48,22,103.15,22Z"/><path class="cls-24" d="M106.23,22.69a.07.07,0,0,0,0-.05.14.14,0,0,0,0-.06h0s0,0,0,0a.12.12,0,0,0,0-.05l0,0-.1-.06a2.52,2.52,0,0,0-.32-.14l-.12,0a.27.27,0,0,0-.12,0,.29.29,0,0,0-.1,0l-.21-.05-.17,0-.16,0-.17,0h0c.4-1.62.43-4-.52-5.29a5.79,5.79,0,0,1-1-3.28h.17a10.47,10.47,0,0,0,2.24,4.26A5.34,5.34,0,0,1,106.23,22.69Z"/><rect class="cls-22" x="97.24" width="0.27" height="26.84"/><path class="cls-23" d="M100.45,33.54a.09.09,0,0,0,0,0s0,0,0-.05h0s0,0,0,0l0,0,0,0-.1-.06a1.63,1.63,0,0,0-.32-.13l-.12,0-.12,0-.1,0-.21,0a.86.86,0,0,0-.17,0l-.16,0-.17,0a11,11,0,0,0-1.47-.09c-1.7,0-3.08.32-3.08.72A5.34,5.34,0,0,1,95,28.6a10.37,10.37,0,0,0,2.23-4.27h.26a10.51,10.51,0,0,0,2.24,4.27A5.31,5.31,0,0,1,100.45,33.54Z"/><path class="cls-22" d="M100.45,33.54c0,.4-1.38.72-3.08.72s-3.08-.32-3.08-.72,1.38-.72,3.08-.72S100.45,33.14,100.45,33.54Z"/><path class="cls-50" d="M97.37,32.82c-.32,0-.64,0-.93,0a.94.94,0,0,0,1.87,0C98,32.83,97.7,32.82,97.37,32.82Z"/><path class="cls-24" d="M100.45,33.54a.09.09,0,0,0,0,0s0,0,0-.05h0s0,0,0,0l0,0,0,0-.1-.06a1.63,1.63,0,0,0-.32-.13l-.12,0-.12,0-.1,0-.21,0a.86.86,0,0,0-.17,0l-.16,0-.17,0h0c.4-1.62.43-4-.52-5.29a5.79,5.79,0,0,1-1-3.28h.17a10.51,10.51,0,0,0,2.24,4.27A5.31,5.31,0,0,1,100.45,33.54Z"/><rect class="cls-22" x="94.21" width="0.27" height="12.86"/><path class="cls-23" d="M97.43,19.56a.43.43,0,0,0,0,0,.14.14,0,0,0,0-.06h0l0,0,0-.05,0,0-.1-.06a3.37,3.37,0,0,0-.32-.14l-.12,0a.53.53,0,0,0-.12,0l-.1,0L96.32,19l-.17,0L96,19l-.17,0a11,11,0,0,0-1.47-.09c-1.7,0-3.08.32-3.08.72A5.36,5.36,0,0,1,92,14.61a10.23,10.23,0,0,0,2.24-4.26h.26a10.33,10.33,0,0,0,2.23,4.26A5.34,5.34,0,0,1,97.43,19.56Z"/><path class="cls-22" d="M97.43,19.56c0,.4-1.38.72-3.08.72s-3.08-.32-3.08-.72,1.38-.72,3.08-.72S97.43,19.16,97.43,19.56Z"/><path class="cls-50" d="M94.35,18.84q-.5,0-.93,0a.92.92,0,0,0,.93.9.94.94,0,0,0,.93-.9C95,18.85,94.67,18.84,94.35,18.84Z"/><path class="cls-24" d="M97.43,19.56a.43.43,0,0,0,0,0,.14.14,0,0,0,0-.06h0s0,0,0,0l0-.05,0,0-.1-.06a3.37,3.37,0,0,0-.32-.14l-.12,0a.53.53,0,0,0-.12,0l-.1,0L96.32,19l-.17,0L96,19l-.17,0h0c.4-1.62.43-4-.53-5.29a5.87,5.87,0,0,1-1-3.28h.18a10.33,10.33,0,0,0,2.23,4.26A5.34,5.34,0,0,1,97.43,19.56Z"/><rect class="cls-22" x="146.71" width="0.27" height="20.06"/><path class="cls-23" d="M149.93,26.76s0,0,0,0,0,0,0-.06h0l0,0s0,0-.05-.05l0,0-.11-.07a2.1,2.1,0,0,0-.32-.13l-.12,0-.11,0-.11,0-.21-.05-.17,0-.16,0a.9.9,0,0,0-.16,0,13.16,13.16,0,0,0-1.47-.08c-1.7,0-3.09.32-3.09.71a5.35,5.35,0,0,1,.72-4.94,10.28,10.28,0,0,0,2.23-4.26H147a10.39,10.39,0,0,0,2.23,4.26A5.35,5.35,0,0,1,149.93,26.76Z"/><path class="cls-22" d="M149.93,26.77c0,.39-1.38.72-3.08.72s-3.08-.33-3.08-.72,1.38-.73,3.08-.73S149.93,26.37,149.93,26.77Z"/><path class="cls-50" d="M146.85,26c-.33,0-.64,0-.94,0a.94.94,0,0,0,1.87,0C147.48,26.06,147.17,26,146.85,26Z"/><path class="cls-24" d="M149.93,26.76s0,0,0,0,0,0,0-.06h0l0,0a.12.12,0,0,0-.05-.05l0,0-.11-.07a2.1,2.1,0,0,0-.32-.13l-.12,0-.11,0-.11,0-.21-.05-.17,0-.16,0a.9.9,0,0,0-.16,0h0c.4-1.62.44-4-.52-5.29a5.84,5.84,0,0,1-1-3.28H147a10.39,10.39,0,0,0,2.23,4.26A5.35,5.35,0,0,1,149.93,26.76Z"/><rect class="cls-22" x="162.45" width="0.27" height="15.99"/><path class="cls-23" d="M165.67,22.69a.43.43,0,0,0,0-.05.14.14,0,0,0,0-.06h0l0,0,0-.05s0,0,0,0l-.11-.06a2.33,2.33,0,0,0-.31-.14l-.12,0-.12,0-.1,0-.22-.05-.17,0-.16,0-.16,0a13.16,13.16,0,0,0-1.47-.08c-1.7,0-3.08.32-3.08.72a5.36,5.36,0,0,1,.71-5,10.35,10.35,0,0,0,2.24-4.26h.26A10.33,10.33,0,0,0,165,17.74,5.37,5.37,0,0,1,165.67,22.69Z"/><path class="cls-22" d="M165.67,22.69c0,.4-1.38.72-3.08.72s-3.08-.32-3.08-.72,1.38-.72,3.08-.72S165.67,22.29,165.67,22.69Z"/><path class="cls-50" d="M162.59,22c-.33,0-.64,0-.94,0a.94.94,0,0,0,1.87,0C163.23,22,162.91,22,162.59,22Z"/><path class="cls-24" d="M165.67,22.69a.43.43,0,0,0,0-.05.14.14,0,0,0,0-.06h0l0,0a.12.12,0,0,0,0-.05s0,0,0,0l-.11-.06a2.33,2.33,0,0,0-.31-.14l-.12,0-.12,0-.1,0-.22-.05-.17,0-.16,0-.16,0h0c.39-1.62.43-4-.53-5.29a5.79,5.79,0,0,1-1-3.28h.18A10.33,10.33,0,0,0,165,17.74,5.37,5.37,0,0,1,165.67,22.69Z"/><rect class="cls-22" x="156.67" width="0.27" height="26.84"/><path class="cls-23" d="M159.89,33.54s0,0,0,0,0,0,0-.05h0l0,0,0,0a0,0,0,0,1,0,0l-.11-.06a1.52,1.52,0,0,0-.31-.13l-.13,0-.11,0-.1,0-.22,0a.86.86,0,0,0-.17,0l-.16,0-.16,0a11,11,0,0,0-1.47-.09c-1.7,0-3.08.32-3.08.72a5.34,5.34,0,0,1,.71-4.94,10.39,10.39,0,0,0,2.24-4.27h.26a10.37,10.37,0,0,0,2.23,4.27A5.34,5.34,0,0,1,159.89,33.54Z"/><path class="cls-22" d="M159.89,33.54c0,.4-1.38.72-3.08.72s-3.08-.32-3.08-.72,1.38-.72,3.08-.72S159.89,33.14,159.89,33.54Z"/><path class="cls-50" d="M156.81,32.82c-.33,0-.64,0-.94,0a.94.94,0,0,0,1.87,0C157.45,32.83,157.13,32.82,156.81,32.82Z"/><path class="cls-24" d="M159.89,33.54s0,0,0,0,0,0,0-.05h0l0,0s0,0,0,0a0,0,0,0,1,0,0l-.11-.06a1.52,1.52,0,0,0-.31-.13l-.13,0-.11,0-.1,0-.22,0a.86.86,0,0,0-.17,0l-.16,0-.16,0h0c.39-1.62.43-4-.53-5.29a5.79,5.79,0,0,1-1-3.28h.18a10.37,10.37,0,0,0,2.23,4.27A5.34,5.34,0,0,1,159.89,33.54Z"/><rect class="cls-22" x="153.65" width="0.27" height="12.86"/><path class="cls-23" d="M156.86,19.56v0l0-.06h0l0,0,0-.05,0,0-.1-.06a2.52,2.52,0,0,0-.32-.14l-.12,0-.12,0-.1,0-.21-.05-.17,0-.16,0-.17,0a11,11,0,0,0-1.47-.09c-1.7,0-3.08.32-3.08.72a5.37,5.37,0,0,1,.72-4.95,10.33,10.33,0,0,0,2.23-4.26h.26a10.47,10.47,0,0,0,2.24,4.26A5.34,5.34,0,0,1,156.86,19.56Z"/><path class="cls-22" d="M156.86,19.56c0,.4-1.38.72-3.08.72s-3.08-.32-3.08-.72,1.38-.72,3.08-.72S156.86,19.16,156.86,19.56Z"/><path class="cls-50" d="M153.78,18.84c-.32,0-.64,0-.93,0a.94.94,0,0,0,1.87,0C154.42,18.85,154.11,18.84,153.78,18.84Z"/><path class="cls-24" d="M156.86,19.56v0l0-.06h0l0,0,0-.05,0,0-.1-.06a2.52,2.52,0,0,0-.32-.14l-.12,0-.12,0-.1,0-.21-.05-.17,0-.16,0-.17,0h0c.4-1.62.43-4-.52-5.29a5.79,5.79,0,0,1-1-3.28h.17a10.47,10.47,0,0,0,2.24,4.26A5.34,5.34,0,0,1,156.86,19.56Z"/><rect class="cls-22" x="206.15" width="0.27" height="20.06"/><path class="cls-23" d="M209.36,26.76a.06.06,0,0,0,0,0,.14.14,0,0,0,0-.06h0l0,0a.12.12,0,0,0,0-.05l0,0-.1-.07-.32-.13-.12,0-.12,0-.1,0-.21-.05-.17,0-.16,0-.17,0a13.16,13.16,0,0,0-1.47-.08c-1.7,0-3.08.32-3.08.71a5.35,5.35,0,0,1,.71-4.94,10.3,10.3,0,0,0,2.24-4.26h.26a10.51,10.51,0,0,0,2.23,4.26A5.32,5.32,0,0,1,209.36,26.76Z"/><path class="cls-22" d="M209.36,26.77c0,.39-1.38.72-3.08.72s-3.08-.33-3.08-.72,1.38-.73,3.08-.73S209.36,26.37,209.36,26.77Z"/><path class="cls-50" d="M206.28,26c-.33,0-.64,0-.93,0a.93.93,0,0,0,1.86,0C206.92,26.06,206.61,26,206.28,26Z"/><path class="cls-24" d="M209.36,26.76a.06.06,0,0,0,0,0,.14.14,0,0,0,0-.06h0l0,0a.12.12,0,0,0,0-.05l0,0-.1-.07-.32-.13-.12,0-.12,0-.1,0-.21-.05-.17,0-.16,0-.17,0h0c.4-1.62.43-4-.53-5.29a5.82,5.82,0,0,1-1-3.28h.17a10.51,10.51,0,0,0,2.23,4.26A5.32,5.32,0,0,1,209.36,26.76Z"/><rect class="cls-22" x="221.89" width="0.27" height="15.99"/><path class="cls-23" d="M225.1,22.69a.07.07,0,0,0,0-.05.14.14,0,0,0,0-.06h0s0,0,0,0a.12.12,0,0,0-.05-.05l0,0-.1-.06a2.52,2.52,0,0,0-.32-.14l-.12,0a.27.27,0,0,0-.12,0,.38.38,0,0,0-.1,0l-.21-.05-.17,0-.16,0-.17,0A13.16,13.16,0,0,0,222,22c-1.7,0-3.08.32-3.08.72a5.37,5.37,0,0,1,.72-5,10.33,10.33,0,0,0,2.23-4.26h.26a10.35,10.35,0,0,0,2.24,4.26A5.36,5.36,0,0,1,225.1,22.69Z"/><path class="cls-22" d="M225.1,22.69c0,.4-1.38.72-3.08.72s-3.08-.32-3.08-.72S220.32,22,222,22,225.1,22.29,225.1,22.69Z"/><path class="cls-50" d="M222,22c-.32,0-.64,0-.93,0a.94.94,0,0,0,.93.9A.92.92,0,0,0,223,22Q222.52,22,222,22Z"/><path class="cls-24" d="M225.1,22.69a.07.07,0,0,0,0-.05.14.14,0,0,0,0-.06h0s0,0,0,0a.12.12,0,0,0-.05-.05l0,0-.1-.06a2.52,2.52,0,0,0-.32-.14l-.12,0a.27.27,0,0,0-.12,0,.38.38,0,0,0-.1,0l-.21-.05-.17,0-.16,0-.17,0h0c.4-1.62.43-4-.53-5.29a5.86,5.86,0,0,1-1-3.28h.17a10.35,10.35,0,0,0,2.24,4.26A5.36,5.36,0,0,1,225.1,22.69Z"/><rect class="cls-22" x="216.11" width="0.27" height="26.84"/><path class="cls-23" d="M219.32,33.54a.09.09,0,0,0,0,0s0,0,0-.05h0l0,0s0,0-.05,0l0,0-.1-.06a1.63,1.63,0,0,0-.32-.13l-.12,0-.12,0-.1,0-.21,0a1,1,0,0,0-.17,0l-.16,0-.17,0a11,11,0,0,0-1.47-.09c-1.7,0-3.08.32-3.08.72a5.34,5.34,0,0,1,.72-4.94,10.37,10.37,0,0,0,2.23-4.27h.26a10.39,10.39,0,0,0,2.24,4.27A5.34,5.34,0,0,1,219.32,33.54Z"/><path class="cls-22" d="M219.32,33.54c0,.4-1.38.72-3.08.72s-3.08-.32-3.08-.72,1.38-.72,3.08-.72S219.32,33.14,219.32,33.54Z"/><path class="cls-50" d="M216.24,32.82c-.32,0-.64,0-.93,0a.94.94,0,0,0,.93.91.93.93,0,0,0,.93-.91Q216.74,32.82,216.24,32.82Z"/><path class="cls-24" d="M219.32,33.54a.09.09,0,0,0,0,0s0,0,0-.05h0s0,0,0,0,0,0-.05,0l0,0-.1-.06a1.63,1.63,0,0,0-.32-.13l-.12,0-.12,0-.1,0-.21,0a1,1,0,0,0-.17,0l-.16,0-.17,0h0c.4-1.62.43-4-.53-5.29a5.86,5.86,0,0,1-1-3.28h.17a10.39,10.39,0,0,0,2.24,4.27A5.34,5.34,0,0,1,219.32,33.54Z"/><rect class="cls-22" x="213.08" width="0.27" height="12.86"/><path class="cls-23" d="M216.3,19.56a.43.43,0,0,0,0,0,.14.14,0,0,0,0-.06h0l0,0,0-.05s0,0,0,0l-.11-.06a2.33,2.33,0,0,0-.31-.14l-.12,0-.12,0-.1,0-.22-.05L215,19l-.16,0-.16,0a11,11,0,0,0-1.47-.09c-1.7,0-3.08.32-3.08.72a5.36,5.36,0,0,1,.71-4.95,10.35,10.35,0,0,0,2.24-4.26h.26a10.33,10.33,0,0,0,2.23,4.26A5.37,5.37,0,0,1,216.3,19.56Z"/><path class="cls-22" d="M216.3,19.56c0,.4-1.38.72-3.08.72s-3.08-.32-3.08-.72,1.38-.72,3.08-.72S216.3,19.16,216.3,19.56Z"/><path class="cls-50" d="M213.22,18.84c-.33,0-.64,0-.94,0a.94.94,0,0,0,1.87,0C213.86,18.85,213.54,18.84,213.22,18.84Z"/><path class="cls-24" d="M216.3,19.56a.43.43,0,0,0,0,0,.14.14,0,0,0,0-.06h0l0,0s0,0,0-.05,0,0,0,0l-.11-.06a2.33,2.33,0,0,0-.31-.14l-.12,0-.12,0-.1,0-.22-.05L215,19l-.16,0-.16,0h0c.39-1.62.43-4-.53-5.29a5.79,5.79,0,0,1-1-3.28h.18a10.33,10.33,0,0,0,2.23,4.26A5.37,5.37,0,0,1,216.3,19.56Z"/></g></g></svg>